<?xml version="1.0" encoding="utf-8"?>
<!-- Generator: Adobe Illustrator 17.0.0, SVG Export Plug-In . SVG Version: 6.00 Build 0)  -->
<!DOCTYPE svg PUBLIC "-//W3C//DTD SVG 1.1//EN" "http://www.w3.org/Graphics/SVG/1.1/DTD/svg11.dtd">
<svg version="1.1" id="Layer_1" xmlns="http://www.w3.org/2000/svg" xmlns:xlink="http://www.w3.org/1999/xlink" x="0px" y="0px"
	 width="2304px" height="2304px" viewBox="0 0 2304 2304" enable-background="new 0 0 2304 2304" xml:space="preserve">
<g>
	<g>
		<path fill="#454445" d="M139.365,367.129h122.987v705.663H139.365V367.129z"/>
		<path fill="#454445" d="M699.849,1084.889c-51.758,0-99.47-9.42-143.148-28.227c-43.694-18.807-81.592-44.513-113.709-77.119
			c-32.117-32.59-57.32-71.071-75.607-115.427s-27.423-91.736-27.423-142.141v-2.016c0-50.405,8.962-97.612,26.919-141.637
			c17.941-44.009,43.143-82.663,75.607-115.93c32.448-33.267,70.866-59.477,115.222-78.631
			c44.356-19.154,93.406-28.731,147.182-28.731c32.259,0,61.65,2.693,88.208,8.064c26.54,5.387,50.909,12.948,73.086,22.682
			c22.179,9.75,42.671,21.343,61.493,34.779c18.808,13.452,36.622,28.227,53.429,44.356l-79.64,91.736
			c-28.226-26.211-58.138-47.38-89.719-63.51c-31.598-16.129-67.543-24.194-107.866-24.194c-33.613,0-64.691,6.553-93.249,19.657
			c-28.573,13.105-53.271,30.92-74.094,53.429c-20.839,22.525-36.969,48.893-48.388,79.135
			c-11.435,30.243-17.137,62.502-17.137,96.777v2.016c0,34.275,5.702,66.707,17.137,97.281
			c11.42,30.589,27.549,57.304,48.388,80.143c20.823,22.855,45.522,40.828,74.094,53.933c28.558,13.105,59.635,19.657,93.249,19.657
			c43.002,0,79.97-8.222,110.889-24.698c30.905-16.46,61.493-38.812,91.737-67.038l79.639,80.648
			c-18.146,19.5-37.141,36.795-56.957,51.916c-19.831,15.122-41.174,28.227-64.014,39.316c-22.855,11.089-47.884,19.5-75.103,25.202
			C762.854,1082.023,732.77,1084.889,699.849,1084.889z"/>
		<path fill="#454445" d="M1034.527,367.129h315.957c81.166,0,142.55,20.839,184.15,62.501
			c31.518,31.597,47.286,70.566,47.286,116.938v2.016c0,21.516-2.835,40.497-8.506,56.957c-5.67,16.476-12.995,30.92-21.988,43.348
			c-9.01,12.443-19.674,23.359-32.007,32.763c-12.334,9.419-24.825,17.484-37.489,24.194c20.698,7.404,39.568,15.972,56.61,25.706
			c17.043,9.751,31.74,21.343,44.104,34.779c12.35,13.452,21.879,29.235,28.558,47.38c6.678,18.145,10.033,39.316,10.033,63.51
			v2.016c0,31.597-6.205,59.478-18.617,83.672c-12.413,24.194-30.023,44.356-52.831,60.485c-22.808,16.13-50.325,28.4-82.522,36.795
			c-32.211,8.411-67.778,12.601-106.683,12.601h-326.054V367.129z M1326.306,664.516c40.182,0,72.331-7.892,96.446-23.69
			c24.115-15.783,36.181-39.819,36.181-72.078v-2.016c0-28.227-10.553-50.231-31.66-66.03c-21.108-15.783-51.744-23.69-91.926-23.69
			h-177.833v187.505H1326.306z M1362.55,962.911c42.213,0,75.386-8.065,99.517-24.194c24.115-16.13,36.181-40.324,36.181-72.583
			v-2.017c0-30.242-11.908-53.586-35.693-70.062c-23.785-16.46-60.139-24.698-109.047-24.698h-195.995v193.554H1362.55z"/>
		<path fill="#454445" d="M1681.705,367.129h315.957c81.166,0,142.55,20.839,184.15,62.501
			c31.518,31.597,47.286,70.566,47.286,116.938v2.016c0,21.516-2.835,40.497-8.506,56.957c-5.67,16.476-12.995,30.92-21.988,43.348
			c-9.011,12.443-19.674,23.359-32.007,32.763c-12.334,9.419-24.825,17.484-37.489,24.194c20.698,7.404,39.568,15.972,56.61,25.706
			c17.043,9.751,31.74,21.343,44.104,34.779c12.35,13.452,21.879,29.235,28.558,47.38c6.678,18.145,10.033,39.316,10.033,63.51
			v2.016c0,31.597-6.205,59.478-18.617,83.672c-12.413,24.194-30.023,44.356-52.831,60.485c-22.808,16.13-50.325,28.4-82.522,36.795
			c-32.211,8.411-67.778,12.601-106.683,12.601h-326.054V367.129z M1973.484,664.516c40.182,0,72.331-7.892,96.446-23.69
			c24.115-15.783,36.181-39.819,36.181-72.078v-2.016c0-28.227-10.553-50.231-31.66-66.03c-21.107-15.783-51.744-23.69-91.926-23.69
			h-177.833v187.505H1973.484z M2009.729,962.911c42.213,0,75.386-8.065,99.517-24.194c24.115-16.13,36.181-40.324,36.181-72.583
			v-2.017c0-30.242-11.908-53.586-35.693-70.062c-23.785-16.46-60.139-24.698-109.047-24.698h-195.995v193.554H2009.729z"/>
		<path fill="#454445" d="M90.977,1806.01l242.95-206.312c24.195-20.13,44.687-38.402,61.494-54.846
			c16.791-16.429,30.4-32.022,40.828-46.798c10.412-14.758,17.972-29.187,22.682-43.269c4.693-14.082,7.056-29.188,7.056-45.302
			c0-34.873-10.931-61.887-32.763-81.009c-21.848-19.121-48.893-28.682-81.152-28.682c-32.258,0-60.659,8.741-85.184,26.209
			c-24.54,17.484-50.578,44.026-78.127,79.64l-87.704-68.55c16.791-23.517,33.929-44.593,51.413-63.242
			c17.468-18.65,36.448-34.243,56.957-46.781c20.493-12.538,43.001-22.21,67.542-28.998c24.525-6.773,52.578-10.176,84.176-10.176
			c34.275,0,65.683,5.041,94.256,15.122c28.557,10.08,53.082,24.367,73.59,42.844c20.492,18.493,36.449,40.67,47.884,66.535
			c11.42,25.88,17.138,54.61,17.138,86.191v2.016c0,27.565-3.701,52.593-11.089,75.103c-7.403,22.524-18.65,44.198-33.771,65.021
			c-15.121,20.839-34.275,41.836-57.461,63.007c-23.186,21.169-50.247,44.529-81.151,70.061l-145.165,120.971H601.07v108.874H90.977
			V1806.01z"/>
		<path fill="#454445" d="M942.803,1915.734c-46.371,0-88.381-9.419-126.011-28.226c-37.645-18.808-69.903-44.687-96.776-77.623
			c-26.888-32.921-47.553-71.402-61.997-115.427c-14.46-44.009-21.674-91.232-21.674-141.636v-2.016
			c0-50.405,7.387-97.785,22.178-142.141c14.774-44.356,35.614-82.993,62.501-115.93c26.873-32.921,59.304-58.974,97.28-78.127
			c37.961-19.154,80.144-28.73,126.515-28.73c46.374,0,88.366,9.42,126.011,28.226c37.63,18.823,69.715,44.702,96.274,77.623
			c26.539,32.936,47.207,71.417,61.997,115.427c14.773,44.025,22.177,91.232,22.177,141.636v2.017
			c0,50.404-7.404,97.784-22.177,142.14c-14.791,44.356-35.631,83.011-62.502,115.931c-26.888,32.936-59.321,58.974-97.282,78.127
			C1031.342,1906.158,989.177,1915.734,942.803,1915.734z M944.82,1803.836c27.55,0,52.248-6.553,74.094-19.658
			c21.831-13.105,40.482-30.905,55.95-53.429c15.453-22.509,27.377-49.049,35.787-79.639c8.395-30.573,12.601-63.337,12.601-98.288
			v-2.016c0-34.937-4.379-67.7-13.105-98.289c-8.741-30.574-20.838-57.287-36.291-80.143c-15.468-22.84-34.448-40.985-56.958-54.437
			c-22.524-13.436-47.222-20.162-74.094-20.162c-27.565,0-52.263,6.553-74.094,19.658c-21.846,13.105-40.497,30.92-55.948,53.428
			c-15.468,22.525-27.392,49.066-35.787,79.64c-8.412,30.589-12.601,63.352-12.601,98.288v2.017
			c0,34.953,4.189,67.715,12.601,98.288c8.395,30.59,20.492,57.304,36.291,80.144c15.782,22.855,34.779,41,56.956,54.437
			C892.399,1797.126,917.255,1803.836,944.82,1803.836z"/>
		<path fill="#454445" d="M1407.534,1318.945l-127.02,35.283l-26.21-100.809l189.521-60.485h86.695v710.703h-122.986V1318.945z"/>
		<path fill="#454445" d="M1886.371,1915.734c-43.694,0-81.497-6.395-113.41-19.154c-31.928-12.758-59.651-30.905-83.168-54.437
			c-13.452-13.436-25.375-28.384-35.787-44.86c-10.428-16.46-19.327-35.441-26.715-56.957c-7.403-21.5-13.105-46.025-17.137-73.59
			c-4.032-27.55-6.048-59.132-6.048-94.76v-2.017c0-53.76,6.38-103.991,19.154-150.709c12.758-46.704,31.755-87.358,56.957-121.979
			c25.202-34.605,56.784-61.824,94.76-81.655c37.96-19.816,81.812-29.738,131.556-29.738c45.694,0,85.341,6.836,118.954,20.492
			c33.597,13.657,65.856,32.794,96.777,57.43l-66.534,95.469c-24.871-19.485-48.892-34.605-72.078-45.364
			c-23.187-10.743-50.248-16.129-81.151-16.129c-26.21,0-49.57,5.576-70.062,16.712c-20.508,11.153-37.803,26.84-51.917,47.096
			c-14.114,20.257-25.202,44.041-33.267,71.385c-8.065,27.345-12.774,57.209-14.114,89.61c9.404-8.726,19.485-17.468,30.244-26.211
			c10.743-8.726,23.013-16.287,36.795-22.682c13.766-6.38,28.888-11.593,45.364-15.626c16.46-4.032,35.11-6.048,55.949-6.048
			c34.275,0,66.36,4.883,96.272,14.618c29.896,9.75,56.107,24.194,78.631,43.348c22.509,19.154,40.15,42.514,52.925,70.062
			c12.758,27.565,19.153,58.816,19.153,93.752v2.016c0,34.953-6.726,67.212-20.161,96.777
			c-13.453,29.58-31.928,54.941-55.446,76.111c-23.532,21.169-51.255,37.645-83.167,49.396
			C1957.773,1909.843,1923.324,1915.734,1886.371,1915.734z M1883.866,1808.876c22.241,0,42.135-3.182,59.682-9.576
			c17.531-6.38,32.369-15.453,44.513-27.219c12.129-11.751,21.406-25.36,27.817-40.828c6.396-15.452,9.609-32.259,9.609-50.405
			v-2.016c0-35.614-12.995-65.022-38.953-88.208c-25.958-23.187-61.193-34.78-105.708-34.78c-22.273,0-42.166,3.371-59.697,10.082
			c-17.532,6.726-32.542,15.625-45.018,26.714c-12.474,11.09-22.083,24.195-28.825,39.316
			c-6.741,15.122-10.112,31.094-10.112,47.885v2.016c0,18.145,3.528,34.953,10.616,50.404c7.088,15.468,16.87,28.904,29.345,40.324
			c12.476,11.435,27.817,20.335,46.026,26.715C1841.369,1805.695,1861.594,1808.876,1883.866,1808.876z"/>
	</g>
	<g>
		<path fill="#52A091" d="M83.976,400.363h122.987v705.663H83.976V400.363z"/>
		<path fill="#52A091" d="M644.459,1118.123c-51.758,0-99.47-9.42-143.148-28.227c-43.694-18.807-81.592-44.513-113.709-77.119
			c-32.117-32.59-57.32-71.071-75.607-115.427c-18.287-44.356-27.423-91.736-27.423-142.141v-2.016
			c0-50.404,8.962-97.612,26.919-141.637c17.941-44.009,43.143-82.664,75.607-115.93c32.448-33.267,70.866-59.477,115.222-78.631
			c44.356-19.154,93.406-28.731,147.182-28.731c32.259,0,61.65,2.693,88.208,8.064c26.54,5.387,50.909,12.948,73.086,22.682
			c22.179,9.75,42.67,21.343,61.493,34.779c18.808,13.452,36.622,28.227,53.429,44.356l-79.64,91.736
			c-28.226-26.211-58.138-47.38-89.719-63.51c-31.598-16.129-67.543-24.194-107.866-24.194c-33.613,0-64.691,6.553-93.249,19.657
			c-28.573,13.105-53.271,30.92-74.094,53.429c-20.839,22.525-36.969,48.893-48.388,79.135
			c-11.435,30.243-17.137,62.502-17.137,96.777v2.016c0,34.275,5.702,66.707,17.137,97.281
			c11.42,30.589,27.549,57.304,48.388,80.143c20.823,22.855,45.522,40.828,74.094,53.933c28.557,13.105,59.635,19.657,93.249,19.657
			c43.002,0,79.97-8.222,110.889-24.698c30.905-16.46,61.493-38.812,91.737-67.038l79.639,80.648
			c-18.145,19.5-37.141,36.795-56.957,51.916c-19.831,15.122-41.174,28.226-64.014,39.316c-22.855,11.089-47.884,19.5-75.103,25.202
			C707.465,1115.256,677.38,1118.123,644.459,1118.123z"/>
		<path fill="#52A091" d="M979.138,400.363h315.957c81.166,0,142.55,20.839,184.15,62.501
			c31.518,31.597,47.286,70.566,47.286,116.939v2.016c0,21.516-2.835,40.497-8.506,56.957c-5.67,16.476-12.995,30.92-21.988,43.348
			c-9.011,12.443-19.674,23.359-32.007,32.763c-12.334,9.419-24.825,17.484-37.489,24.194c20.698,7.403,39.568,15.972,56.61,25.706
			c17.043,9.75,31.74,21.343,44.104,34.779c12.35,13.452,21.879,29.235,28.558,47.38c6.678,18.146,10.033,39.316,10.033,63.51v2.016
			c0,31.597-6.205,59.478-18.617,83.672c-12.413,24.194-30.023,44.356-52.831,60.486c-22.808,16.13-50.326,28.4-82.522,36.795
			c-32.211,8.411-67.778,12.601-106.683,12.601H979.138V400.363z M1270.916,697.75c40.182,0,72.331-7.892,96.446-23.69
			c24.115-15.783,36.181-39.819,36.181-72.078v-2.016c0-28.227-10.553-50.231-31.66-66.03c-21.108-15.783-51.744-23.69-91.926-23.69
			h-177.833V697.75H1270.916z M1307.161,996.144c42.213,0,75.386-8.065,99.517-24.194c24.115-16.13,36.181-40.324,36.181-72.583
			v-2.016c0-30.242-11.908-53.586-35.693-70.062c-23.785-16.46-60.139-24.698-109.047-24.698h-195.995v193.554H1307.161z"/>
		<path fill="#52A091" d="M1626.316,400.363h315.957c81.166,0,142.55,20.839,184.15,62.501
			c31.518,31.597,47.286,70.566,47.286,116.939v2.016c0,21.516-2.836,40.497-8.507,56.957c-5.67,16.476-12.995,30.92-21.988,43.348
			c-9.01,12.443-19.674,23.359-32.007,32.763c-12.334,9.419-24.825,17.484-37.489,24.194c20.698,7.403,39.568,15.972,56.61,25.706
			c17.043,9.75,31.74,21.343,44.104,34.779c12.35,13.452,21.879,29.235,28.558,47.38c6.678,18.146,10.033,39.316,10.033,63.51v2.016
			c0,31.597-6.206,59.478-18.617,83.672c-12.413,24.194-30.023,44.356-52.831,60.486c-22.808,16.13-50.326,28.4-82.522,36.795
			c-32.211,8.411-67.777,12.601-106.683,12.601h-326.054V400.363z M1918.094,697.75c40.182,0,72.331-7.892,96.446-23.69
			c24.115-15.783,36.181-39.819,36.181-72.078v-2.016c0-28.227-10.553-50.231-31.66-66.03c-21.108-15.783-51.744-23.69-91.926-23.69
			h-177.833V697.75H1918.094z M1954.339,996.144c42.213,0,75.386-8.065,99.517-24.194c24.115-16.13,36.181-40.324,36.181-72.583
			v-2.016c0-30.242-11.908-53.586-35.693-70.062c-23.785-16.46-60.139-24.698-109.047-24.698h-195.995v193.554H1954.339z"/>
		<path fill="#52A091" d="M35.587,1839.243l242.95-206.312c24.195-20.13,44.687-38.402,61.494-54.847
			c16.791-16.429,30.4-32.022,40.828-46.798c10.411-14.758,17.972-29.187,22.682-43.269c4.694-14.082,7.056-29.188,7.056-45.302
			c0-34.873-10.931-61.887-32.763-81.009c-21.848-19.121-48.893-28.682-81.152-28.682c-32.258,0-60.659,8.741-85.184,26.209
			c-24.54,17.484-50.578,44.026-78.127,79.64l-87.704-68.55c16.791-23.517,33.929-44.593,51.413-63.243
			c17.468-18.65,36.448-34.243,56.957-46.781c20.493-12.538,43.001-22.21,67.542-28.998c24.525-6.773,52.578-10.176,84.176-10.176
			c34.275,0,65.683,5.041,94.256,15.122c28.557,10.081,53.082,24.367,73.59,42.844c20.493,18.493,36.449,40.67,47.884,66.535
			c11.42,25.88,17.138,54.61,17.138,86.191v2.016c0,27.565-3.701,52.593-11.089,75.103c-7.403,22.524-18.65,44.198-33.771,65.021
			c-15.121,20.839-34.275,41.836-57.461,63.007c-23.186,21.169-50.247,44.529-81.151,70.061l-145.165,120.971h335.694v108.874
			H35.587V1839.243z"/>
		<path fill="#52A091" d="M887.414,1948.968c-46.371,0-88.381-9.419-126.011-28.226c-37.645-18.808-69.903-44.687-96.776-77.623
			c-26.888-32.921-47.553-71.402-61.997-115.427c-14.46-44.009-21.674-91.232-21.674-141.636v-2.016
			c0-50.405,7.387-97.785,22.178-142.141c14.775-44.356,35.614-82.993,62.502-115.93c26.873-32.921,59.304-58.974,97.28-78.127
			c37.961-19.154,80.144-28.73,126.515-28.73c46.374,0,88.366,9.42,126.011,28.226c37.63,18.823,69.715,44.702,96.274,77.623
			c26.539,32.936,47.207,71.417,61.997,115.427c14.773,44.025,22.177,91.232,22.177,141.636v2.017
			c0,50.404-7.404,97.784-22.177,142.14c-14.791,44.356-35.631,83.011-62.501,115.931c-26.888,32.936-59.321,58.974-97.282,78.127
			C975.953,1939.391,933.787,1948.968,887.414,1948.968z M889.43,1837.07c27.55,0,52.248-6.553,74.094-19.658
			c21.831-13.105,40.482-30.905,55.95-53.429c15.453-22.509,27.377-49.049,35.787-79.639c8.395-30.573,12.601-63.337,12.601-98.288
			v-2.016c0-34.937-4.379-67.7-13.105-98.289c-8.741-30.574-20.838-57.287-36.291-80.143
			c-15.468-22.839-34.448-40.985-56.958-54.436c-22.524-13.436-47.222-20.162-74.094-20.162c-27.565,0-52.263,6.553-74.094,19.658
			c-21.846,13.105-40.497,30.92-55.948,53.428c-15.468,22.525-27.392,49.066-35.787,79.64
			c-8.412,30.589-12.601,63.352-12.601,98.288v2.017c0,34.953,4.189,67.715,12.601,98.288c8.395,30.59,20.492,57.304,36.291,80.144
			c15.782,22.855,34.779,41,56.956,54.436C837.009,1830.359,861.865,1837.07,889.43,1837.07z"/>
		<path fill="#52A091" d="M1352.144,1352.179l-127.02,35.283l-26.211-100.809l189.521-60.485h86.695v710.703h-122.986V1352.179z"/>
		<path fill="#52A091" d="M1830.981,1948.968c-43.694,0-81.497-6.395-113.41-19.154c-31.928-12.758-59.651-30.905-83.168-54.436
			c-13.451-13.436-25.375-28.384-35.787-44.86c-10.428-16.46-19.327-35.441-26.715-56.957c-7.403-21.5-13.105-46.025-17.137-73.59
			c-4.032-27.55-6.048-59.132-6.048-94.76v-2.017c0-53.76,6.38-103.991,19.154-150.709c12.758-46.704,31.755-87.358,56.957-121.979
			c25.202-34.606,56.784-61.824,94.76-81.655c37.96-19.816,81.812-29.738,131.556-29.738c45.694,0,85.341,6.836,118.954,20.492
			c33.597,13.657,65.856,32.795,96.777,57.43l-66.535,95.469c-24.871-19.485-48.892-34.605-72.078-45.364
			c-23.187-10.743-50.248-16.129-81.151-16.129c-26.211,0-49.57,5.576-70.062,16.712c-20.508,11.152-37.803,26.84-51.917,47.096
			c-14.114,20.257-25.202,44.041-33.267,71.385c-8.065,27.345-12.774,57.209-14.114,89.61c9.404-8.726,19.485-17.468,30.244-26.211
			c10.743-8.726,23.013-16.287,36.795-22.682c13.766-6.38,28.888-11.593,45.364-15.626c16.46-4.032,35.11-6.048,55.949-6.048
			c34.274,0,66.36,4.883,96.272,14.618c29.896,9.75,56.107,24.194,78.631,43.348c22.509,19.154,40.15,42.514,52.925,70.062
			c12.758,27.565,19.153,58.816,19.153,93.752v2.016c0,34.953-6.726,67.212-20.161,96.777
			c-13.452,29.58-31.928,54.941-55.446,76.111c-23.532,21.169-51.255,37.645-83.167,49.396
			C1902.383,1943.077,1867.934,1948.968,1830.981,1948.968z M1828.477,1842.11c22.241,0,42.135-3.182,59.682-9.576
			c17.531-6.38,32.369-15.453,44.513-27.219c12.129-11.751,21.406-25.36,27.817-40.828c6.396-15.452,9.609-32.259,9.609-50.404
			v-2.016c0-35.614-12.995-65.022-38.953-88.208c-25.958-23.187-61.194-34.78-105.708-34.78c-22.273,0-42.166,3.371-59.697,10.082
			c-17.532,6.726-32.542,15.625-45.018,26.714c-12.475,11.09-22.083,24.195-28.825,39.316
			c-6.741,15.122-10.112,31.094-10.112,47.885v2.015c0,18.146,3.528,34.953,10.616,50.405c7.088,15.468,16.87,28.904,29.345,40.324
			c12.476,11.435,27.817,20.335,46.026,26.715C1785.979,1838.928,1806.204,1842.11,1828.477,1842.11z"/>
	</g>
</g>
</svg>
