<?xml version="1.0" encoding="utf-8"?>
<!-- Generator: Adobe Illustrator 15.0.0, SVG Export Plug-In . SVG Version: 6.00 Build 0)  -->
<!DOCTYPE svg PUBLIC "-//W3C//DTD SVG 1.1//EN" "http://www.w3.org/Graphics/SVG/1.1/DTD/svg11.dtd">
<svg version="1.1" id="Layer_1" xmlns="http://www.w3.org/2000/svg" xmlns:xlink="http://www.w3.org/1999/xlink" x="0px" y="0px"
	 width="2304px" height="2304px" viewBox="0 0 2304 2304" enable-background="new 0 0 2304 2304" xml:space="preserve">
<g>
	<g>
		<g>
			<path fill="#444343" d="M252.661,357.653h74v736h-74V357.653z"/>
			<path fill="#444343" d="M1098.202,494.153l-58,44.5c-32.031-41.656-70.484-73.25-115.359-94.75s-94.156-32.25-147.859-32.25
				c-58.719,0-113.109,14.078-163.141,42.219c-50.047,28.156-88.828,65.953-116.359,113.406
				c-27.531,47.469-41.281,100.844-41.281,160.125c0,89.594,30.766,164.375,92.328,224.328
				c61.547,59.953,139.203,89.922,232.953,89.922c103.078,0,189.313-40.328,258.719-121l58,44
				c-36.672,46.828-82.422,83.031-137.25,108.625c-54.844,25.578-116.094,38.375-183.75,38.375
				c-128.672,0-230.172-42.796-304.5-128.421c-62.344-72.281-93.5-159.547-93.5-261.828c0-107.594,37.75-198.109,113.25-271.563
				s170.078-110.188,283.75-110.188c68.656,0,130.656,13.547,186,40.625C1017.53,407.356,1062.858,445.31,1098.202,494.153z"/>
			<path fill="#444343" d="M1165.586,357.653h144.625c58.172,0,102.891,6.938,134.141,20.781
				c31.25,13.859,55.922,35.141,74.047,63.844c18.125,28.719,27.188,60.594,27.188,95.641c0,32.719-8.047,62.516-24.109,89.391
				s-39.656,48.656-70.781,65.344c38.547,13,68.219,28.25,89,45.75s36.969,38.672,48.531,63.5
				c11.563,24.844,17.359,51.75,17.359,80.75c0,59-21.563,108.922-64.688,149.75c-43.125,40.844-100.969,61.25-173.547,61.25
				h-201.766V357.653z M1237.586,429.653v236h41.734c50.656,0,87.922-4.75,111.766-14.281c23.844-9.516,42.719-24.547,56.625-45.094
				c13.906-20.531,20.875-43.328,20.875-68.391c0-33.734-11.688-60.203-35.031-79.422c-23.344-19.203-60.516-28.813-111.516-28.813
				H1237.586z M1237.586,739.653v282h90.688c53.469,0,92.672-5.25,117.594-15.75c24.906-10.5,44.922-26.906,60.047-49.25
				c15.109-22.328,22.672-46.5,22.672-72.5c0-32.656-10.688-61.156-32.031-85.5c-21.359-24.328-50.719-41-88.078-50
				c-24.844-6-68.063-9-129.656-9H1237.586z"/>
			<path fill="#444343" d="M1671.533,357.653h144.625c58.172,0,102.891,6.938,134.141,20.781
				c31.25,13.859,55.922,35.141,74.047,63.844c18.125,28.719,27.188,60.594,27.188,95.641c0,32.719-8.047,62.516-24.109,89.391
				s-39.656,48.656-70.781,65.344c38.547,13,68.219,28.25,89,45.75s36.969,38.672,48.531,63.5
				c11.563,24.844,17.359,51.75,17.359,80.75c0,59-21.563,108.922-64.688,149.75c-43.125,40.844-100.969,61.25-173.547,61.25
				h-201.766V357.653z M1743.533,429.653v236h41.734c50.656,0,87.922-4.75,111.766-14.281c23.844-9.516,42.719-24.547,56.625-45.094
				c13.906-20.531,20.875-43.328,20.875-68.391c0-33.734-11.688-60.203-35.031-79.422c-23.344-19.203-60.516-28.813-111.516-28.813
				H1743.533z M1743.533,739.653v282h90.688c53.469,0,92.672-5.25,117.594-15.75c24.906-10.5,44.922-26.906,60.047-49.25
				c15.109-22.328,22.672-46.5,22.672-72.5c0-32.656-10.688-61.156-32.031-85.5c-21.359-24.328-50.719-41-88.078-50
				c-24.844-6-68.063-9-129.656-9H1743.533z"/>
		</g>
		<g>
			<path fill="#444343" d="M325.579,1439.452h-66.584c1.889-68.488,24.792-124.727,68.709-168.717
				c43.917-43.984,98.142-65.98,162.683-65.98c63.905,0,115.614,20.631,155.126,61.893c39.505,41.26,59.265,89.914,59.265,145.977
				c0,39.371-9.422,76.301-28.26,110.789s-55.413,81.18-109.727,140.074l-173.042,186.33h320.473v67.057H242.467l265.392-286.818
				c53.834-57.656,88.853-100.43,105.071-128.313c16.21-27.885,24.32-57.266,24.32-88.145c0-39.07-14.565-72.701-43.681-100.902
				c-29.124-28.201-64.776-42.301-106.959-42.301c-44.39,0-81.305,14.801-110.738,44.389
				C346.431,1344.38,329.667,1385.937,325.579,1439.452z"/>
			<path fill="#444343" d="M809.348,1569.788c0-91.613,9.835-162.447,29.514-212.504c19.671-50.055,47.459-87.988,83.348-113.807
				c35.889-25.811,76.029-38.723,120.418-38.723c45.017,0,85.783,12.986,122.308,38.959c36.516,25.973,65.402,64.932,86.652,116.877
				c21.252,51.945,31.877,121.68,31.877,209.197c0,87.207-10.471,156.623-31.404,208.252
				c-20.939,51.635-49.82,90.594-86.653,116.875c-36.834,26.283-77.763,39.432-122.779,39.432c-44.389,0-84.374-12.75-119.946-38.25
				c-35.579-25.5-63.359-63.516-83.348-114.043C819.338,1731.524,809.348,1660.772,809.348,1569.788z M874.987,1570.968
				c0,78.457,7.002,137.766,21.014,177.934c14.004,40.17,34.708,70.658,62.098,91.449c27.389,20.793,56.35,31.189,86.89,31.189
				c30.85,0,59.656-10.16,86.417-30.48c26.756-20.32,47.061-50.801,60.918-91.449c17.311-49.467,25.973-109.012,25.973-178.643
				c0-69.941-7.719-127.207-23.139-171.787c-15.43-44.582-36.761-77.188-63.987-97.826c-27.234-20.637-55.959-30.959-86.182-30.959
				c-30.857,0-59.818,10.322-86.89,30.959c-27.079,20.639-47.695,51.039-61.862,91.207
				C882.071,1432.731,874.987,1492.202,874.987,1570.968z"/>
			<path fill="#444343" d="M1377.551,1222.228h136.473v694.646h-68.945v-626.645h-109.084L1377.551,1222.228z"/>
			<path fill="#444343" d="M1668.574,1222.228h440.588l-371.643,712.119l-57.516-29.469l320.686-616.539h-332.115V1222.228z"/>
		</g>
	</g>
	<g>
		<g>
			<path fill="#00A191" d="M202.661,387.653h74v736h-74V387.653z"/>
			<path fill="#00A191" d="M1048.202,524.153l-58,44.5c-32.031-41.656-70.484-73.25-115.359-94.75s-94.156-32.25-147.859-32.25
				c-58.719,0-113.109,14.078-163.141,42.219c-50.047,28.156-88.828,65.953-116.359,113.406
				c-27.531,47.469-41.281,100.844-41.281,160.125c0,89.594,30.766,164.375,92.328,224.328
				c61.547,59.953,139.203,89.922,232.953,89.922c103.078,0,189.313-40.328,258.719-121l58,44
				c-36.672,46.828-82.422,83.031-137.25,108.625c-54.844,25.578-116.094,38.375-183.75,38.375
				c-128.672,0-230.172-42.796-304.5-128.421c-62.344-72.281-93.5-159.547-93.5-261.828c0-107.594,37.75-198.109,113.25-271.563
				s170.078-110.188,283.75-110.188c68.656,0,130.656,13.547,186,40.625C967.53,437.356,1012.858,475.31,1048.202,524.153z"/>
			<path fill="#00A191" d="M1115.585,387.653h144.625c58.172,0,102.891,6.938,134.141,20.781
				c31.25,13.859,55.922,35.141,74.047,63.844c18.125,28.719,27.188,60.594,27.188,95.641c0,32.719-8.047,62.516-24.109,89.391
				s-39.656,48.656-70.781,65.344c38.547,13,68.219,28.25,89,45.75s36.969,38.672,48.531,63.5
				c11.563,24.844,17.359,51.75,17.359,80.75c0,59-21.563,108.922-64.688,149.75c-43.125,40.844-100.969,61.25-173.547,61.25
				h-201.766V387.653z M1187.586,459.653v236h41.734c50.656,0,87.922-4.75,111.766-14.281c23.844-9.516,42.719-24.547,56.625-45.094
				c13.906-20.531,20.875-43.328,20.875-68.391c0-33.734-11.688-60.203-35.031-79.422c-23.344-19.203-60.516-28.813-111.516-28.813
				H1187.586z M1187.586,769.653v282h90.688c53.469,0,92.672-5.25,117.594-15.75c24.906-10.5,44.922-26.906,60.047-49.25
				c15.109-22.328,22.672-46.5,22.672-72.5c0-32.656-10.688-61.156-32.031-85.5c-21.359-24.328-50.719-41-88.078-50
				c-24.844-6-68.063-9-129.656-9H1187.586z"/>
			<path fill="#00A191" d="M1621.533,387.653h144.625c58.172,0,102.891,6.938,134.141,20.781
				c31.25,13.859,55.922,35.141,74.047,63.844c18.125,28.719,27.188,60.594,27.188,95.641c0,32.719-8.047,62.516-24.109,89.391
				s-39.656,48.656-70.781,65.344c38.547,13,68.219,28.25,89,45.75s36.969,38.672,48.531,63.5
				c11.563,24.844,17.359,51.75,17.359,80.75c0,59-21.563,108.922-64.688,149.75c-43.125,40.844-100.969,61.25-173.547,61.25
				h-201.766V387.653z M1693.533,459.653v236h41.734c50.656,0,87.922-4.75,111.766-14.281c23.844-9.516,42.719-24.547,56.625-45.094
				c13.906-20.531,20.875-43.328,20.875-68.391c0-33.734-11.688-60.203-35.031-79.422c-23.344-19.203-60.516-28.813-111.516-28.813
				H1693.533z M1693.533,769.653v282h90.688c53.469,0,92.672-5.25,117.594-15.75c24.906-10.5,44.922-26.906,60.047-49.25
				c15.109-22.328,22.672-46.5,22.672-72.5c0-32.656-10.688-61.156-32.031-85.5c-21.359-24.328-50.719-41-88.078-50
				c-24.844-6-68.063-9-129.656-9H1693.533z"/>
		</g>
		<g>
			<path fill="#00A191" d="M275.579,1469.452h-66.584c1.889-68.488,24.792-124.727,68.709-168.717
				c43.917-43.984,98.142-65.98,162.683-65.98c63.905,0,115.614,20.631,155.126,61.893c39.505,41.26,59.265,89.914,59.265,145.977
				c0,39.371-9.422,76.301-28.26,110.789s-55.413,81.18-109.727,140.074l-173.042,186.33h320.473v67.057H192.467l265.392-286.818
				c53.834-57.656,88.853-100.43,105.071-128.313c16.21-27.885,24.32-57.266,24.32-88.145c0-39.07-14.565-72.701-43.681-100.902
				c-29.124-28.201-64.776-42.301-106.959-42.301c-44.39,0-81.305,14.801-110.738,44.389
				C296.431,1374.38,279.667,1415.937,275.579,1469.452z"/>
			<path fill="#00A191" d="M759.348,1599.788c0-91.613,9.835-162.447,29.514-212.504c19.671-50.055,47.459-87.988,83.348-113.807
				c35.889-25.811,76.029-38.723,120.418-38.723c45.017,0,85.783,12.986,122.307,38.959c36.516,25.973,65.403,64.932,86.653,116.877
				c21.252,51.945,31.877,121.68,31.877,209.197c0,87.207-10.471,156.623-31.404,208.252
				c-20.939,51.635-49.82,90.594-86.653,116.875c-36.834,26.283-77.763,39.432-122.779,39.432c-44.389,0-84.374-12.75-119.946-38.25
				c-35.579-25.5-63.359-63.516-83.348-114.043C769.338,1761.524,759.348,1690.772,759.348,1599.788z M824.987,1600.968
				c0,78.457,7.002,137.766,21.014,177.934c14.004,40.17,34.708,70.658,62.098,91.449c27.389,20.793,56.35,31.189,86.89,31.189
				c30.85,0,59.656-10.16,86.417-30.48c26.755-20.32,47.06-50.801,60.917-91.449c17.311-49.467,25.973-109.012,25.973-178.643
				c0-69.941-7.719-127.207-23.139-171.787c-15.43-44.582-36.761-77.188-63.987-97.826c-27.234-20.637-55.959-30.959-86.182-30.959
				c-30.857,0-59.818,10.322-86.89,30.959c-27.079,20.639-47.695,51.039-61.862,91.207
				C832.071,1462.731,824.987,1522.202,824.987,1600.968z"/>
			<path fill="#00A191" d="M1327.551,1252.228h136.473v694.646h-68.945v-626.645h-109.084L1327.551,1252.228z"/>
			<path fill="#00A191" d="M1618.574,1252.228h440.588l-371.643,712.119l-57.516-29.469l320.686-616.539h-332.115V1252.228z"/>
		</g>
	</g>
</g>
</svg>
